<?xml version="1.0" encoding="utf-8"?>
<svg xmlns="http://www.w3.org/2000/svg" width="24" height="24" viewBox="0 0 24 24" fill="none">
<g clip-path="url(#clip0_6141_13912)">
<path d="M-17 -8H25V34H-17V-8Z" fill="black"/>
<path fill-rule="evenodd" clip-rule="evenodd" d="M-17 -8H24.9996V-4.76926H-17V-8ZM-17 -1.53853H24.9996V1.69221H-17V-1.53853ZM-17 4.92295H24.9996V8.15369H-17V4.92295ZM-17 11.3844H24.9996V14.6152H-17V11.3844ZM-17 17.8459H24.9996V21.0766H-17V17.8459ZM-17 24.3074H24.9996V27.5381H-17V24.3074ZM-17 30.7689H24.9996V33.9996H-17V30.7689Z" fill="#BD3D44"/>
<path fill-rule="evenodd" clip-rule="evenodd" d="M-17 -4.80078H24.9996V-1.56431H-17V-4.80078ZM-17 1.67217H24.9996V4.90864H-17V1.67217ZM-17 8.14511H24.9996V11.3816H-17V8.14511ZM-17 14.6181H24.9996V17.8545H-17V14.6181ZM-17 21.091H24.9996V24.3275H-17V21.091ZM-17 27.564H24.9996V30.8004H-17V27.564Z" fill="white"/>
<path fill-rule="evenodd" clip-rule="evenodd" d="M-17 -8H14.92V14.6154H-17V-8Z" fill="#192F5D"/>
<path fill-rule="evenodd" clip-rule="evenodd" d="M-14.3511 -7.03079L-14.028 -6.12618H-13.1234L-13.8665 -5.57695L-13.5757 -4.70464L-14.3511 -5.25387L-15.0619 -4.70464L-14.7711 -5.57695L-15.5465 -6.12618H-14.5773L-14.3511 -7.03079ZM-9.02035 -7.03079L-8.72959 -6.12618H-7.79266L-8.56805 -5.57695L-8.24497 -4.70464L-9.02035 -5.25387L-9.79574 -4.70464L-9.47266 -5.57695L-10.248 -6.12618H-9.31112L-9.02035 -7.03079ZM-3.68959 -7.03079L-3.39882 -6.12618H-2.46189L-3.23728 -5.57695L-2.9142 -4.70464L-3.68959 -5.25387L-4.46497 -4.70464L-4.14189 -5.57695L-4.91728 -6.12618H-3.98036L-3.68959 -7.03079ZM1.60888 -7.03079L1.93195 -6.12618H2.83657L2.09349 -5.57695L2.38426 -4.70464L1.60888 -5.25387L0.865799 -4.70464L1.15657 -5.57695L0.381184 -6.12618H1.35041L1.60888 -7.03079ZM6.93964 -7.03079L7.23042 -6.12618H8.16734L7.39195 -5.57695L7.71503 -4.70464L6.90734 -5.25387L6.16426 -4.70464L6.45503 -5.57695L5.67965 -6.12618H6.61657L6.93964 -7.03079ZM12.2704 -7.03079L12.5612 -6.12618H13.4981L12.7227 -5.57695L13.0458 -4.70464L12.2704 -5.25387L11.495 -4.70464L11.8181 -5.57695L11.0427 -6.12618H11.9796L12.2704 -7.03079ZM-11.6696 -4.76925L-11.3788 -3.86464H-10.4419L-11.2173 -3.31541L-10.8942 -2.4431L-11.6696 -2.99233L-12.445 -2.4431L-12.1219 -3.31541L-12.8973 -3.86464H-11.9604L-11.6696 -4.76925ZM-6.37112 -4.76925L-6.04805 -3.86464H-5.14343L-5.88651 -3.31541L-5.59574 -2.4431L-6.37112 -2.99233L-7.1142 -2.4431L-6.82343 -3.31541L-7.59882 -3.86464H-6.62959L-6.37112 -4.76925ZM-1.04035 -4.76925L-0.749586 -3.86464H0.187338L-0.588048 -3.31541L-0.26497 -2.4431L-1.04035 -2.99233L-1.81574 -2.4431L-1.49266 -3.31541L-2.26805 -3.86464H-1.33112L-1.04035 -4.76925ZM4.29041 -4.76925L4.58118 -3.86464H5.5181L4.74272 -3.31541L5.0658 -2.4431L4.29041 -2.99233L3.51503 -2.4431L3.83811 -3.31541L3.06272 -3.86464H3.99965L4.29041 -4.76925ZM9.58888 -4.76925L9.91195 -3.86464H10.7843L10.0412 -3.31541L10.332 -2.4431L9.55657 -2.99233L8.81349 -2.4431L9.10426 -3.31541L8.32888 -3.86464H9.29811L9.58888 -4.76925ZM-14.3188 -2.50772L-14.0604 -1.6031H-13.0911L-13.8665 -1.05387L-13.5757 -0.181561L-14.3511 -0.730793L-15.0619 -0.181561L-14.7711 -1.05387L-15.5465 -1.6031H-14.5773L-14.3188 -2.50772ZM-9.02035 -2.50772L-8.72959 -1.6031H-7.79266L-8.53574 -1.05387L-8.24497 -0.181561L-9.02035 -0.730793L-9.76343 -0.181561L-9.47266 -1.05387L-10.248 -1.6031H-9.31112L-9.02035 -2.50772ZM-3.68959 -2.50772L-3.39882 -1.6031H-2.46189L-3.23728 -1.05387L-2.9142 -0.181561L-3.68959 -0.730793L-4.46497 -0.181561L-4.14189 -1.05387L-4.91728 -1.6031H-3.98036L-3.68959 -2.50772ZM1.60888 -2.50772L1.93195 -1.6031H2.83657L2.09349 -1.05387L2.38426 -0.181561L1.60888 -0.730793L0.865799 -0.181561L1.15657 -1.05387L0.381184 -1.6031H1.35041L1.60888 -2.50772ZM6.93964 -2.50772L7.23042 -1.6031H8.16734L7.42426 -1.05387L7.71503 -0.181561L6.93964 -0.730793L6.19657 -0.181561L6.48734 -1.05387L5.71195 -1.6031H6.64887L6.93964 -2.50772ZM12.2704 -2.50772L12.5612 -1.6031H13.4981L12.7227 -1.05387L13.0458 -0.181561L12.2704 -0.730793L11.495 -0.181561L11.8181 -1.05387L11.0427 -1.6031H11.9796L12.2704 -2.50772ZM-11.6696 -0.246177L-11.3788 0.658438H-10.4419L-11.2173 1.20767L-10.8942 2.07998L-11.6696 1.53075L-12.445 2.07998L-12.1219 1.20767L-12.8973 0.658438H-11.9604L-11.6696 -0.246177ZM-6.37112 -0.246177L-6.04805 0.658438H-5.14343L-5.88651 1.20767L-5.59574 2.07998L-6.37112 1.53075L-7.1142 2.07998L-6.82343 1.20767L-7.59882 0.658438H-6.62959L-6.37112 -0.246177ZM-1.04035 -0.246177L-0.749586 0.658438H0.187338L-0.555739 1.20767L-0.26497 2.07998L-1.04035 1.53075L-1.78343 2.07998L-1.49266 1.20767L-2.26805 0.658438H-1.33112L-1.04035 -0.246177ZM4.29041 -0.246177L4.58118 0.658438H5.5181L4.74272 1.20767L5.0658 2.07998L4.29041 1.53075L3.51503 2.07998L3.83811 1.20767L3.06272 0.658438H3.99965L4.29041 -0.246177ZM9.58888 -0.246177L9.91195 0.658438H10.7843L10.0412 1.20767L10.332 2.07998L9.55657 1.53075L8.81349 2.07998L9.10426 1.20767L8.32888 0.658438H9.29811L9.58888 -0.246177ZM-14.3188 2.01536L-14.0604 2.91998H-13.0911L-13.8665 3.46921L-13.5757 4.34152L-14.3511 3.79228L-15.0619 4.34152L-14.7711 3.46921L-15.5465 2.91998H-14.5773L-14.3188 2.01536ZM-9.02035 2.01536L-8.72959 2.91998H-7.79266L-8.53574 3.46921L-8.24497 4.34152L-9.02035 3.79228L-9.76343 4.34152L-9.47266 3.46921L-10.248 2.91998H-9.31112L-9.02035 2.01536ZM-3.68959 2.01536L-3.39882 2.91998H-2.46189L-3.23728 3.46921L-2.9142 4.34152L-3.68959 3.79228L-4.46497 4.34152L-4.14189 3.46921L-4.91728 2.91998H-3.98036L-3.68959 2.01536ZM1.60888 2.01536L1.93195 2.91998H2.83657L2.09349 3.46921L2.38426 4.34152L1.60888 3.79228L0.865799 4.34152L1.15657 3.46921L0.381184 2.91998H1.35041L1.60888 2.01536ZM6.93964 2.01536L7.23042 2.91998H8.16734L7.42426 3.46921L7.71503 4.34152L6.93964 3.79228L6.19657 4.34152L6.48734 3.46921L5.71195 2.91998H6.64887L6.93964 2.01536ZM12.2704 2.01536L12.5612 2.91998H13.4981L12.7227 3.46921L13.0458 4.34152L12.2704 3.79228L11.495 4.34152L11.8181 3.46921L11.0427 2.91998H11.9796L12.2704 2.01536ZM-11.6696 4.2769L-11.3788 5.18152H-10.4419L-11.2173 5.73075L-10.8942 6.60305L-11.6696 6.05382L-12.445 6.60305L-12.1219 5.73075L-12.8973 5.18152H-11.9604L-11.6696 4.2769ZM-6.37112 4.2769L-6.04805 5.18152H-5.14343L-5.88651 5.73075L-5.59574 6.60305L-6.37112 6.05382L-7.1142 6.60305L-6.82343 5.73075L-7.59882 5.18152H-6.62959L-6.37112 4.2769ZM-1.04035 4.2769L-0.749586 5.18152H0.187338L-0.555739 5.73075L-0.26497 6.60305L-1.04035 6.05382L-1.78343 6.60305L-1.49266 5.73075L-2.26805 5.18152H-1.33112L-1.04035 4.2769ZM4.29041 4.2769L4.58118 5.18152H5.5181L4.74272 5.73075L5.0658 6.60305L4.29041 6.05382L3.51503 6.60305L3.83811 5.73075L3.06272 5.18152H3.99965L4.29041 4.2769ZM9.58888 4.2769L9.91195 5.18152H10.7843L10.0412 5.73075L10.332 6.60305L9.55657 6.05382L8.81349 6.60305L9.10426 5.73075L8.32888 5.18152H9.29811L9.58888 4.2769ZM-14.3188 6.53844L-14.0604 7.44305H-13.0911L-13.8665 7.99228L-13.5757 8.86459L-14.3511 8.31536L-15.0619 8.86459L-14.7711 7.99228L-15.5465 7.44305H-14.5773L-14.3188 6.53844ZM-9.02035 6.53844L-8.72959 7.44305H-7.79266L-8.53574 7.99228L-8.24497 8.86459L-9.02035 8.31536L-9.76343 8.86459L-9.47266 7.99228L-10.248 7.44305H-9.31112L-9.02035 6.53844ZM-3.68959 6.53844L-3.39882 7.44305H-2.46189L-3.23728 7.99228L-2.9142 8.86459L-3.68959 8.31536L-4.46497 8.86459L-4.14189 7.99228L-4.91728 7.44305H-3.98036L-3.68959 6.53844ZM1.60888 6.53844L1.93195 7.44305H2.83657L2.09349 7.99228L2.38426 8.86459L1.60888 8.31536L0.865799 8.86459L1.15657 7.99228L0.381184 7.44305H1.35041L1.60888 6.53844ZM6.93964 6.53844L7.23042 7.44305H8.16734L7.42426 7.99228L7.71503 8.86459L6.93964 8.31536L6.19657 8.86459L6.48734 7.99228L5.71195 7.44305H6.64887L6.93964 6.53844ZM12.2704 6.53844L12.5612 7.44305H13.4981L12.7227 7.99228L13.0458 8.86459L12.2704 8.31536L11.495 8.86459L11.8181 7.99228L11.0427 7.44305H11.9796L12.2704 6.53844ZM-11.6696 8.79998L-11.3788 9.70459H-10.4419L-11.2173 10.2538L-10.8942 11.1261L-11.6696 10.5769L-12.445 11.1261L-12.1219 10.2538L-12.8973 9.70459H-11.9604L-11.6696 8.79998ZM-6.37112 8.79998L-6.04805 9.70459H-5.14343L-5.88651 10.2538L-5.59574 11.1261L-6.37112 10.5769L-7.1142 11.1261L-6.82343 10.2538L-7.59882 9.70459H-6.62959L-6.37112 8.79998ZM-1.04035 8.79998L-0.749586 9.70459H0.187338L-0.555739 10.2538L-0.26497 11.1261L-1.04035 10.5769L-1.78343 11.1261L-1.49266 10.2538L-2.26805 9.70459H-1.33112L-1.04035 8.79998ZM4.29041 8.79998L4.58118 9.70459H5.5181L4.74272 10.2538L5.0658 11.1261L4.29041 10.5769L3.51503 11.1261L3.83811 10.2538L3.06272 9.70459H3.99965L4.29041 8.79998ZM9.58888 8.79998L9.91195 9.70459H10.7843L10.0412 10.2538L10.332 11.1261L9.55657 10.5769L8.81349 11.1261L9.10426 10.2538L8.32888 9.70459H9.29811L9.58888 8.79998ZM-14.3188 11.0615L-14.0604 11.9661H-13.0911L-13.8665 12.5154L-13.5757 13.3877L-14.3511 12.8384L-15.0619 13.3877L-14.7711 12.5154L-15.5465 11.9661H-14.5773L-14.3188 11.0615ZM-9.02035 11.0615L-8.72959 11.9661H-7.79266L-8.53574 12.5154L-8.24497 13.3877L-9.02035 12.8384L-9.76343 13.3877L-9.47266 12.5154L-10.248 11.9661H-9.31112L-9.02035 11.0615ZM-3.68959 11.0615L-3.39882 11.9661H-2.46189L-3.23728 12.5154L-2.9142 13.3877L-3.68959 12.8384L-4.46497 13.3877L-4.14189 12.5154L-4.91728 11.9661H-3.98036L-3.68959 11.0615ZM1.60888 11.0615L1.93195 11.9661H2.83657L2.09349 12.5154L2.38426 13.3877L1.60888 12.8384L0.865799 13.3877L1.15657 12.5154L0.381184 11.9661H1.35041L1.60888 11.0615ZM6.93964 11.0615L7.23042 11.9661H8.16734L7.42426 12.5154L7.71503 13.3877L6.93964 12.8384L6.19657 13.3877L6.48734 12.5154L5.71195 11.9661H6.64887L6.93964 11.0615ZM12.2704 11.0615L12.5612 11.9661H13.4981L12.7227 12.5154L13.0458 13.3877L12.2704 12.8384L11.495 13.3877L11.8181 12.5154L11.0427 11.9661H11.9796L12.2704 11.0615Z" fill="white"/>
</g>
<defs>
<clipPath id="clip0_6141_13912">
<rect width="24" height="24" rx="4" fill="white"/>
</clipPath>
</defs>
</svg>